<svg xmlns="http://www.w3.org/2000/svg" version="1.1" xmlns:xlink="http://www.w3.org/1999/xlink" width="64" height="64"><svg xmlns="http://www.w3.org/2000/svg" viewBox="0 0 64 64">
  <!-- Background -->
  <rect width="64" height="64" fill="#0a0e1a" rx="10"></rect>
  
  <!-- Terminal window frame -->
  <rect x="10" y="10" width="44" height="44" fill="#0a0e1a" stroke="#00ffd9" stroke-width="2.5" rx="4"></rect>
  
  <!-- Terminal header -->
  <rect x="10" y="10" width="44" height="12" fill="#1a1f2e" rx="4 4 0 0"></rect>
  <circle cx="18" cy="16" r="2.5" fill="#ff4444"></circle>
  <circle cx="24" cy="16" r="2.5" fill="#ffaa00"></circle>
  <circle cx="30" cy="16" r="2.5" fill="#00ff88"></circle>
  
  <!-- Terminal prompt and code -->
  <text x="14" y="32" font-family="monospace" font-size="7" fill="#00ffd9">$</text>
  <rect x="20" y="28" width="22" height="2" fill="#00ffd9" opacity="0.9" rx="1"></rect>
  
  <text x="14" y="42" font-family="monospace" font-size="7" fill="#00ffd9">&gt;</text>
  <rect x="20" y="38" width="18" height="2" fill="#00ffd9" opacity="0.7" rx="1"></rect>
  
  <text x="14" y="52" font-family="monospace" font-size="7" fill="#ff00ff">AI</text>
  <text x="22" y="52" font-family="monospace" font-size="7" fill="#ffffff" opacity="0.6">×</text>
  <text x="28" y="52" font-family="monospace" font-size="7" fill="#00ffd9">SEC</text>
  
  <!-- Shield icon -->
  <path d="M 32 18 L 38 19.5 L 38 26 Q 38 30 35 32.5 Q 32 35 29 32.5 Q 26 30 26 26 L 26 19.5 Z" fill="none" stroke="#ff00ff" stroke-width="1.2" opacity="0.6"></path>
  
  <!-- Neural network nodes -->
  <circle cx="50" cy="34" r="2" fill="#00ffd9"></circle>
  <circle cx="54" cy="40" r="2" fill="#ff00ff"></circle>
  <line x1="50" y1="34" x2="54" y2="40" stroke="#00ffd9" stroke-width="1" opacity="0.6"></line>
</svg><style>@media (prefers-color-scheme: light) { :root { filter: none; } }
@media (prefers-color-scheme: dark) { :root { filter: none; } }
</style></svg>